<mxfile host="app.diagrams.net" modified="2021-04-12T03:11:19.191Z" agent="5.0 (Windows NT 6.1; Win64; x64) AppleWebKit/537.36 (KHTML, like Gecko) Chrome/70.0.3538.102 Safari/537.36" etag="belshQL1faAX2AjGyKBu" version="14.5.10" type="github">
  <diagram id="giNoF5PDMwWR5CkbPJEQ" name="Page-1">
    <mxGraphModel dx="1185" dy="662" grid="1" gridSize="10" guides="1" tooltips="1" connect="1" arrows="1" fold="1" page="1" pageScale="1" pageWidth="850" pageHeight="1100" math="0" shadow="0">
      <root>
        <mxCell id="0" />
        <mxCell id="1" parent="0" />
        <mxCell id="p-tirkUHEayRBr14Zzce-1" value="" style="rounded=0;whiteSpace=wrap;html=1;dashed=1;" vertex="1" parent="1">
          <mxGeometry x="40" y="130" width="770" height="860" as="geometry" />
        </mxCell>
        <mxCell id="p-tirkUHEayRBr14Zzce-2" value="" style="rounded=0;whiteSpace=wrap;html=1;fontSize=24;shadow=0;sketch=0;glass=0;" vertex="1" parent="1">
          <mxGeometry x="130" y="380" width="610" height="360" as="geometry" />
        </mxCell>
        <mxCell id="p-tirkUHEayRBr14Zzce-3" style="edgeStyle=none;rounded=0;orthogonalLoop=1;jettySize=auto;html=1;" edge="1" parent="1" source="p-tirkUHEayRBr14Zzce-6" target="p-tirkUHEayRBr14Zzce-1">
          <mxGeometry relative="1" as="geometry" />
        </mxCell>
        <mxCell id="p-tirkUHEayRBr14Zzce-4" style="edgeStyle=orthogonalEdgeStyle;rounded=0;orthogonalLoop=1;jettySize=auto;html=1;startArrow=none;startFill=0;endArrow=classic;endFill=1;fontSize=24;exitX=0;exitY=0.5;exitDx=0;exitDy=0;" edge="1" parent="1" source="p-tirkUHEayRBr14Zzce-17" target="p-tirkUHEayRBr14Zzce-8">
          <mxGeometry relative="1" as="geometry">
            <mxPoint x="190" y="870" as="targetPoint" />
            <Array as="points">
              <mxPoint x="100" y="840" />
              <mxPoint x="100" y="250" />
            </Array>
          </mxGeometry>
        </mxCell>
        <mxCell id="p-tirkUHEayRBr14Zzce-5" value="3.0V" style="edgeLabel;html=1;align=center;verticalAlign=middle;resizable=0;points=[];fontSize=24;" vertex="1" connectable="0" parent="p-tirkUHEayRBr14Zzce-4">
          <mxGeometry x="-0.0069" y="4" relative="1" as="geometry">
            <mxPoint as="offset" />
          </mxGeometry>
        </mxCell>
        <mxCell id="p-tirkUHEayRBr14Zzce-6" value="&lt;span style=&quot;font-size: 24px&quot;&gt;BAT 3.6V&lt;/span&gt;" style="rounded=0;whiteSpace=wrap;html=1;" vertex="1" parent="1">
          <mxGeometry x="357.5" y="930" width="120" height="60" as="geometry" />
        </mxCell>
        <mxCell id="p-tirkUHEayRBr14Zzce-8" value="&lt;font style=&quot;font-size: 24px&quot;&gt;Sensor板&lt;/font&gt;" style="rounded=0;whiteSpace=wrap;html=1;" vertex="1" parent="1">
          <mxGeometry x="340" y="180" width="171" height="144" as="geometry" />
        </mxCell>
        <mxCell id="p-tirkUHEayRBr14Zzce-12" style="edgeStyle=orthogonalEdgeStyle;rounded=0;orthogonalLoop=1;jettySize=auto;html=1;startArrow=none;startFill=0;" edge="1" parent="1" source="p-tirkUHEayRBr14Zzce-13">
          <mxGeometry relative="1" as="geometry">
            <mxPoint x="380" y="324" as="targetPoint" />
            <Array as="points">
              <mxPoint x="380" y="390" />
              <mxPoint x="380" y="390" />
            </Array>
          </mxGeometry>
        </mxCell>
        <mxCell id="p-tirkUHEayRBr14Zzce-13" value="&lt;span style=&quot;font-size: 24px&quot;&gt;N32L406RBL7&lt;/span&gt;" style="rounded=0;whiteSpace=wrap;html=1;" vertex="1" parent="1">
          <mxGeometry x="325" y="490" width="200" height="190" as="geometry" />
        </mxCell>
        <mxCell id="p-tirkUHEayRBr14Zzce-14" style="edgeStyle=orthogonalEdgeStyle;rounded=0;orthogonalLoop=1;jettySize=auto;html=1;startArrow=classic;startFill=1;endArrow=none;endFill=0;fontSize=24;entryX=0.5;entryY=0;entryDx=0;entryDy=0;" edge="1" parent="1" source="p-tirkUHEayRBr14Zzce-17" target="p-tirkUHEayRBr14Zzce-6">
          <mxGeometry relative="1" as="geometry">
            <mxPoint x="320" y="960" as="targetPoint" />
            <Array as="points">
              <mxPoint x="418" y="920" />
              <mxPoint x="418" y="930" />
            </Array>
          </mxGeometry>
        </mxCell>
        <mxCell id="p-tirkUHEayRBr14Zzce-15" value="" style="edgeStyle=orthogonalEdgeStyle;rounded=0;orthogonalLoop=1;jettySize=auto;html=1;startArrow=none;startFill=0;endArrow=classic;endFill=1;fontSize=24;" edge="1" parent="1" source="p-tirkUHEayRBr14Zzce-17" target="p-tirkUHEayRBr14Zzce-2">
          <mxGeometry relative="1" as="geometry">
            <Array as="points">
              <mxPoint x="418" y="770" />
              <mxPoint x="418" y="770" />
            </Array>
          </mxGeometry>
        </mxCell>
        <mxCell id="p-tirkUHEayRBr14Zzce-16" value="3.0V" style="edgeLabel;html=1;align=center;verticalAlign=middle;resizable=0;points=[];fontSize=24;" vertex="1" connectable="0" parent="p-tirkUHEayRBr14Zzce-15">
          <mxGeometry x="-0.265" relative="1" as="geometry">
            <mxPoint x="26.48" y="-14.48" as="offset" />
          </mxGeometry>
        </mxCell>
        <mxCell id="p-tirkUHEayRBr14Zzce-17" value="LDO" style="rounded=0;whiteSpace=wrap;html=1;fontSize=24;" vertex="1" parent="1">
          <mxGeometry x="370" y="810" width="95" height="60" as="geometry" />
        </mxCell>
        <mxCell id="p-tirkUHEayRBr14Zzce-18" style="edgeStyle=orthogonalEdgeStyle;rounded=0;orthogonalLoop=1;jettySize=auto;html=1;startArrow=none;startFill=0;fontSize=24;" edge="1" parent="1" source="p-tirkUHEayRBr14Zzce-19">
          <mxGeometry relative="1" as="geometry">
            <mxPoint x="525" y="617" as="targetPoint" />
            <Array as="points">
              <mxPoint x="560" y="580" />
              <mxPoint x="560" y="617" />
            </Array>
          </mxGeometry>
        </mxCell>
        <mxCell id="p-tirkUHEayRBr14Zzce-19" value="&lt;span style=&quot;font-size: 24px&quot;&gt;霍尔传感器&lt;/span&gt;" style="rounded=1;whiteSpace=wrap;html=1;" vertex="1" parent="1">
          <mxGeometry x="580" y="550" width="150" height="60" as="geometry" />
        </mxCell>
        <mxCell id="p-tirkUHEayRBr14Zzce-20" value="" style="edgeStyle=orthogonalEdgeStyle;rounded=0;orthogonalLoop=1;jettySize=auto;html=1;startArrow=classic;startFill=1;fontSize=24;endArrow=none;endFill=0;" edge="1" parent="1" source="p-tirkUHEayRBr14Zzce-21" target="p-tirkUHEayRBr14Zzce-13">
          <mxGeometry relative="1" as="geometry">
            <Array as="points">
              <mxPoint x="290" y="560" />
              <mxPoint x="290" y="560" />
            </Array>
          </mxGeometry>
        </mxCell>
        <mxCell id="p-tirkUHEayRBr14Zzce-21" value="&lt;span style=&quot;font-size: 24px&quot;&gt;红外发射&lt;/span&gt;" style="rounded=1;whiteSpace=wrap;html=1;" vertex="1" parent="1">
          <mxGeometry x="140" y="545" width="100" height="60" as="geometry" />
        </mxCell>
        <mxCell id="p-tirkUHEayRBr14Zzce-22" value="" style="edgeStyle=orthogonalEdgeStyle;rounded=0;orthogonalLoop=1;jettySize=auto;html=1;startArrow=classic;startFill=1;fontSize=24;" edge="1" parent="1" source="p-tirkUHEayRBr14Zzce-23" target="p-tirkUHEayRBr14Zzce-13">
          <mxGeometry relative="1" as="geometry">
            <Array as="points">
              <mxPoint x="560" y="670" />
              <mxPoint x="560" y="640" />
            </Array>
          </mxGeometry>
        </mxCell>
        <mxCell id="p-tirkUHEayRBr14Zzce-23" value="&lt;span style=&quot;font-size: 24px&quot;&gt;SWD&lt;/span&gt;" style="rounded=1;whiteSpace=wrap;html=1;" vertex="1" parent="1">
          <mxGeometry x="605" y="640" width="80" height="60" as="geometry" />
        </mxCell>
        <mxCell id="p-tirkUHEayRBr14Zzce-24" value="" style="edgeStyle=orthogonalEdgeStyle;rounded=0;orthogonalLoop=1;jettySize=auto;html=1;startArrow=classic;startFill=1;fontSize=24;endArrow=none;endFill=0;" edge="1" parent="1" source="p-tirkUHEayRBr14Zzce-25" target="p-tirkUHEayRBr14Zzce-13">
          <mxGeometry relative="1" as="geometry">
            <Array as="points">
              <mxPoint x="270" y="450" />
              <mxPoint x="270" y="530" />
            </Array>
          </mxGeometry>
        </mxCell>
        <mxCell id="p-tirkUHEayRBr14Zzce-25" value="&lt;span style=&quot;font-size: 24px&quot;&gt;LED&lt;/span&gt;" style="rounded=1;whiteSpace=wrap;html=1;" vertex="1" parent="1">
          <mxGeometry x="150" y="420" width="80" height="60" as="geometry" />
        </mxCell>
        <mxCell id="p-tirkUHEayRBr14Zzce-26" style="edgeStyle=orthogonalEdgeStyle;rounded=0;orthogonalLoop=1;jettySize=auto;html=1;entryX=1;entryY=0.25;entryDx=0;entryDy=0;startArrow=classic;startFill=1;fontSize=24;" edge="1" parent="1" source="p-tirkUHEayRBr14Zzce-27" target="p-tirkUHEayRBr14Zzce-13">
          <mxGeometry relative="1" as="geometry" />
        </mxCell>
        <mxCell id="p-tirkUHEayRBr14Zzce-27" value="&lt;span style=&quot;font-size: 24px&quot;&gt;UART&lt;/span&gt;" style="rounded=1;whiteSpace=wrap;html=1;" vertex="1" parent="1">
          <mxGeometry x="590" y="460" width="110" height="60" as="geometry" />
        </mxCell>
        <mxCell id="p-tirkUHEayRBr14Zzce-31" value="主控板" style="text;html=1;strokeColor=none;fillColor=none;align=center;verticalAlign=middle;whiteSpace=wrap;rounded=0;fontSize=24;" vertex="1" parent="1">
          <mxGeometry x="530" y="390" width="139" height="30" as="geometry" />
        </mxCell>
        <mxCell id="p-tirkUHEayRBr14Zzce-32" value="&lt;span style=&quot;font-size: 24px&quot;&gt;红外接收&lt;/span&gt;" style="rounded=1;whiteSpace=wrap;html=1;" vertex="1" parent="1">
          <mxGeometry x="140" y="620" width="100" height="60" as="geometry" />
        </mxCell>
        <mxCell id="p-tirkUHEayRBr14Zzce-33" value="38KPWM载波" style="text;html=1;strokeColor=none;fillColor=none;align=center;verticalAlign=middle;whiteSpace=wrap;rounded=0;fontSize=10;" vertex="1" parent="1">
          <mxGeometry x="246.5" y="540" width="78.5" height="20" as="geometry" />
        </mxCell>
        <mxCell id="p-tirkUHEayRBr14Zzce-34" value="" style="edgeStyle=orthogonalEdgeStyle;rounded=0;orthogonalLoop=1;jettySize=auto;html=1;startArrow=classic;startFill=1;fontSize=24;endArrow=none;endFill=0;" edge="1" parent="1" source="p-tirkUHEayRBr14Zzce-21" target="p-tirkUHEayRBr14Zzce-13">
          <mxGeometry relative="1" as="geometry">
            <mxPoint x="240" y="560" as="sourcePoint" />
            <mxPoint x="325" y="560" as="targetPoint" />
            <Array as="points">
              <mxPoint x="320" y="590" />
              <mxPoint x="320" y="590" />
            </Array>
          </mxGeometry>
        </mxCell>
        <mxCell id="p-tirkUHEayRBr14Zzce-35" value="LPUART数据发送" style="text;html=1;strokeColor=none;fillColor=none;align=center;verticalAlign=middle;whiteSpace=wrap;rounded=0;fontSize=10;" vertex="1" parent="1">
          <mxGeometry x="240" y="570" width="85" height="20" as="geometry" />
        </mxCell>
        <mxCell id="p-tirkUHEayRBr14Zzce-37" value="电源控制" style="text;html=1;strokeColor=none;fillColor=none;align=center;verticalAlign=middle;whiteSpace=wrap;rounded=0;fontSize=11;" vertex="1" parent="1">
          <mxGeometry x="246.5" y="620" width="78.5" height="20" as="geometry" />
        </mxCell>
        <mxCell id="p-tirkUHEayRBr14Zzce-38" value="" style="edgeStyle=orthogonalEdgeStyle;rounded=0;orthogonalLoop=1;jettySize=auto;html=1;startArrow=classic;startFill=1;fontSize=24;endArrow=none;endFill=0;" edge="1" parent="1" target="p-tirkUHEayRBr14Zzce-13">
          <mxGeometry relative="1" as="geometry">
            <mxPoint x="240" y="640" as="sourcePoint" />
            <mxPoint x="325" y="560" as="targetPoint" />
            <Array as="points">
              <mxPoint x="240" y="640" />
            </Array>
          </mxGeometry>
        </mxCell>
        <mxCell id="p-tirkUHEayRBr14Zzce-39" value="" style="edgeStyle=orthogonalEdgeStyle;rounded=0;orthogonalLoop=1;jettySize=auto;html=1;startArrow=none;startFill=0;fontSize=24;endArrow=classic;endFill=1;" edge="1" parent="1" target="p-tirkUHEayRBr14Zzce-13">
          <mxGeometry relative="1" as="geometry">
            <mxPoint x="240" y="660" as="sourcePoint" />
            <mxPoint x="325" y="640" as="targetPoint" />
            <Array as="points">
              <mxPoint x="240" y="660" />
            </Array>
          </mxGeometry>
        </mxCell>
        <mxCell id="p-tirkUHEayRBr14Zzce-40" value="LPUART数据接收" style="text;html=1;strokeColor=none;fillColor=none;align=center;verticalAlign=middle;whiteSpace=wrap;rounded=0;fontSize=10;" vertex="1" parent="1">
          <mxGeometry x="237.5" y="640" width="90" height="20" as="geometry" />
        </mxCell>
        <mxCell id="p-tirkUHEayRBr14Zzce-41" value="5XGPIO" style="text;html=1;strokeColor=none;fillColor=none;align=center;verticalAlign=middle;whiteSpace=wrap;rounded=0;fontSize=12;" vertex="1" parent="1">
          <mxGeometry x="330" y="405" width="40" height="20" as="geometry" />
        </mxCell>
        <mxCell id="p-tirkUHEayRBr14Zzce-42" style="edgeStyle=orthogonalEdgeStyle;rounded=0;orthogonalLoop=1;jettySize=auto;html=1;startArrow=classic;startFill=1;endArrow=none;endFill=0;" edge="1" parent="1" source="p-tirkUHEayRBr14Zzce-13">
          <mxGeometry relative="1" as="geometry">
            <mxPoint x="380.02857142857147" y="490" as="sourcePoint" />
            <mxPoint x="440" y="324" as="targetPoint" />
            <Array as="points">
              <mxPoint x="440" y="324" />
            </Array>
          </mxGeometry>
        </mxCell>
        <mxCell id="p-tirkUHEayRBr14Zzce-43" value="比较器" style="text;html=1;strokeColor=none;fillColor=none;align=center;verticalAlign=middle;whiteSpace=wrap;rounded=0;fontSize=12;" vertex="1" parent="1">
          <mxGeometry x="450" y="400" width="40" height="20" as="geometry" />
        </mxCell>
      </root>
    </mxGraphModel>
  </diagram>
</mxfile>
